<svg width="44" height="44" viewBox="0 0 44 44" fill="none" xmlns="http://www.w3.org/2000/svg">
<path d="M18.3333 16.5C18.3333 16.0138 18.1402 15.5475 17.7964 15.2036C17.4525 14.8598 16.9862 14.6667 16.5 14.6667H12.8333C10.8884 14.6667 9.02315 15.4393 7.64788 16.8146C6.27262 18.1898 5.5 20.0551 5.5 22C5.5 23.9449 6.27262 25.8102 7.64788 27.1855C9.02315 28.5607 10.8884 29.3333 12.8333 29.3333H16.5C16.9862 29.3333 17.4525 29.1402 17.7964 28.7964C18.1402 28.4526 18.3333 27.9862 18.3333 27.5" stroke="white" stroke-width="2" stroke-linecap="round" stroke-linejoin="round"/>
<path d="M25.6667 27.5C25.6667 27.9862 25.8598 28.4526 26.2036 28.7964C26.5474 29.1402 27.0138 29.3333 27.5 29.3333H31.1667C33.1116 29.3333 34.9768 28.5607 36.3521 27.1855C37.7274 25.8102 38.5 23.9449 38.5 22C38.5 20.0551 37.7274 18.1898 36.3521 16.8146C34.9768 15.4393 33.1116 14.6667 31.1667 14.6667H27.5C27.0138 14.6667 26.5474 14.8598 26.2036 15.2036C25.8598 15.5475 25.6667 16.0138 25.6667 16.5" stroke="white" stroke-width="2" stroke-linecap="round" stroke-linejoin="round"/>
<path d="M14.6667 22H29.3333" stroke="white" stroke-width="2" stroke-linecap="round" stroke-linejoin="round"/>
</svg>
