<svg xmlns="http://www.w3.org/2000/svg" version="1.1" xmlns:xlink="http://www.w3.org/1999/xlink" xmlns:svgjs="http://svgjs.com/svgjs" width="512" height="512" x="0" y="0" viewBox="0 0 24 24" style="enable-background:new 0 0 512 512" xml:space="preserve" class=""><g><g fill="#000"><path d="M21 13h-6.4c-1.1 0-2.2-.3-3.2-.8S9.6 10.9 8.9 10c-.9-1.2-2.4-2-4-2H3c-.6 0-1-.4-1-1s.4-1 1-1h1.9c2.2 0 4.3 1.1 5.6 2.9.4.6 1 1.2 1.7 1.5.7.4 1.5.5 2.2.5H21c.6 0 1 .4 1 1s-.4 1.1-1 1.1z" fill="#f84678" data-original="#000000" class="" opacity="1"></path><path d="M5 18H3c-.6 0-1-.4-1-1s.4-1 1-1h2c.8 0 1.6-.2 2.2-.5.7-.4 1.3-.9 1.7-1.5.6-.9 1.5-1.6 2.5-2.2 1-.5 2.1-.8 3.2-.8H20c.6 0 1 .4 1 1s-.4 1-1 1h-5.5c-.8 0-1.6.2-2.2.5-.7.4-1.3.9-1.7 1.5-.6.9-1.5 1.6-2.5 2.2-1 .5-2.1.8-3.1.8z" fill="#f84678" data-original="#000000" class="" opacity="1"></path><path d="M18 16c-.3 0-.5-.1-.7-.3-.4-.4-.4-1 0-1.4l2.3-2.3-2.3-2.3c-.4-.4-.4-1 0-1.4s1-.4 1.4 0l3 3c.4.4.4 1 0 1.4l-3 3c-.2.2-.4.3-.7.3z" fill="#f84678" data-original="#000000" class="" opacity="1"></path></g></g></svg>